<svg id="Layer_1" height="512" viewBox="0 0 512 512" width="512" xmlns="http://www.w3.org/2000/svg" data-name="Layer 1"><path d="m90 78h30v101h-30z" fill="#d4e1f4"/><path d="m495 215h-478a5.977 5.977 0 0 0 -6 5.974v31.755a6.237 6.237 0 0 0 6 6.271h4v191.593c0 3.314 2.5 6.407 5.81 6.407h27.94a6.578 6.578 0 0 0 6.25-6.407v-144.593h175v144.593c0 3.314 2.717 6.407 6.03 6.407h27.94c3.313 0 6.03-3.093 6.03-6.407v-144.593h174v144.593a6.594 6.594 0 0 0 6.269 6.407h28.921c3.313 0 5.81-3.093 5.81-6.407v-191.593h4a6.237 6.237 0 0 0 6-6.271v-31.755a5.977 5.977 0 0 0 -6-5.974zm-472 12h466v20h-466zm10 218v-186h16v186zm28-151v-35h175v35zm187 151v-186h16v186zm28-151v-35h174v35zm203 151h-17v-186h17z" fill="#1ae5be"/><path d="m259 78a6 6 0 0 0 -6-6h-163a6 6 0 0 0 -6 6v102a6 6 0 0 0 6 6h163a6 6 0 0 0 6-6zm-12 95h-151v-89h151z" fill="#0635c9"/><path d="m294 209.388v-13.453c0-3.314-3.058-5.935-6.371-5.935h-12.629v-118.245c0-9.014-6.874-16.755-15.9-16.755h-175.416a17 17 0 0 0 -16.684 16.755v118.245h-11.848a6.077 6.077 0 0 0 -6.152 5.935v13.453a16.739 16.739 0 0 0 16.528 16.612h211.725a16.929 16.929 0 0 0 16.747-16.612zm-215-137.633a5 5 0 0 1 4.684-4.755h175.416c2.413 0 3.9 2.357 3.9 4.755v118.245h-184zm-18 137.633v-7.388h221v7.388a4.931 4.931 0 0 1 -4.747 4.612h-211.725a4.732 4.732 0 0 1 -4.528-4.612z" fill="#0635c9"/><path d="m108 153.728a6 6 0 0 0 6-6v-26.616a6 6 0 0 0 -12 0v26.616a6 6 0 0 0 6 6z" fill="#1ae5be"/><path d="m108 109.353a6 6 0 0 0 6-6v-3.2a6 6 0 0 0 -12 0v3.2a6 6 0 0 0 6 6z" fill="#1ae5be"/><path d="m451.577 160h-78.415a19.586 19.586 0 0 0 -14.052 33.172 19.171 19.171 0 0 0 -5.478 13.414 19.453 19.453 0 0 0 19.53 19.414h78.415c3.314 0 6.423-2.417 6.423-5.73v-54.121a6.5 6.5 0 0 0 -6.423-6.149zm-5.577 54h-72.838a7.5 7.5 0 1 1 0-15h72.838zm0-27h-72.838a7.5 7.5 0 1 1 0-15h72.838z" fill="#0635c9"/></svg>