<svg id="Layer_1" height="512" viewBox="0 0 512 512" width="512" xmlns="http://www.w3.org/2000/svg" data-name="Layer 1"><path d="m193.59 303.842a227.441 227.441 0 0 1 -47.26 16.594 76.794 76.794 0 0 0 -9.064 2.76l-.006.209a73.256 73.256 0 0 0 -20.63 11.595h-.15a78.119 78.119 0 0 0 -31.48 62.96v97.04h30v-87.04a79.075 79.075 0 0 1 21.037-53.6c3.192-3.49 6.758-7.361 10.518-9.361h.038a49.412 49.412 0 0 1 7.144-5.076 79.33 79.33 0 0 1 13.513-6.623l.011-.047a76.944 76.944 0 0 1 9.067-2.787 227.489 227.489 0 0 0 47.261-16.607l-8.529-20.679z" fill="#d4e1f4"/><g fill="#0635c9"><path d="m367.222 314.583a207.752 207.752 0 0 1 -51.2-20.22l-13.022-7.031v-19.332h-12v22.879a58.08 58.08 0 0 1 -14.811 39.121h-40.174a67.454 67.454 0 0 1 -15.015-42.678v-21.322h-12l-.041 23.439-16.281 8.161c-14.191 7.131-29.967 12.686-47.879 16.982a85.57 85.57 0 0 0 -65.799 83.376v97.042a6.261 6.261 0 0 0 6.3 6h341.4a6.261 6.261 0 0 0 6.3-6v-97.042a85.552 85.552 0 0 0 -65.778-83.375zm-64.586-13.934 9.09 4.986-8.237 43.432-16.135-13.858a68.775 68.775 0 0 0 15.282-34.56zm-28.684 69.537 7.747-24.015 21.843 18.76a6 6 0 0 0 9.8-3.434l9.515-50.179a209.871 209.871 0 0 0 40.554 14.719l-83.211 83.29-7.548-36.935a5.951 5.951 0 0 0 1.3-2.206zm-3.431-28.186-6.648 20h-15.746l-6.648-20zm-.491 77.334-14.03 14.128-14.3-14.443 9.765-45.019h9.335zm-59.775-117.157a78.722 78.722 0 0 0 14.634 32.847l-16.271 14.061-8.256-41.937zm-21.074 10.295 9.658 49.066a6 6 0 0 0 9.809 3.38l21.662-18.718 7.738 23.987a5.985 5.985 0 0 0 1.51 2.438l-7.945 36.516-83.03-83.1a238.57 238.57 0 0 0 40.598-13.569zm-53.393 17.734 113.212 113.316a9.89 9.89 0 0 0 14 0l113.212-113.316a73.274 73.274 0 0 1 9.877 5.167l-125.389 125.499a6.646 6.646 0 0 1 -9.408 0l-125.385-125.5a73.219 73.219 0 0 1 9.881-5.166zm285.212 158.794h-47v-52.07a6 6 0 0 0 -12 0v52.07h-212v-61.813a6 6 0 0 0 -12 0v61.813h-47v-91.042a73.714 73.714 0 0 1 25.034-55.344l126.7 126.74a18.714 18.714 0 0 0 26.441 0l126.782-126.741a73.723 73.723 0 0 1 25.043 55.345z"/><path d="m107 420.112a6 6 0 0 0 -6 6v46.616a6 6 0 1 0 12 0v-46.616a6 6 0 0 0 -6-6z"/><path d="m107 399.156a6 6 0 0 0 -6 6v3.2a6 6 0 1 0 12 0v-3.2a6 6 0 0 0 -6-6z"/></g><path d="m122.43 134h31.228a6 6 0 0 0 5.49-8.419l-15.614-35.439a5.925 5.925 0 0 0 -.534-.942v-22.448l23 8.587v68.489a6.137 6.137 0 0 0 .988 3.011 92.489 92.489 0 0 0 6.49 29.4l2.286 5.65a18.057 18.057 0 0 0 -5.632 13.439 18.429 18.429 0 0 0 15.868 18.129v1.672a71.5 71.5 0 1 0 143 0v-1.672a18.313 18.313 0 0 0 8.192-32.81 119.22 119.22 0 0 0 6.135-33.783 5.849 5.849 0 0 0 .673-3.036v-68.489l31.907-11.685a6.076 6.076 0 0 0 4.009-5.691 5.965 5.965 0 0 0 -4-5.611l-118.65-41.023a5.982 5.982 0 0 0 -3.91 0l-118.665 41.023a5.954 5.954 0 0 0 -3.691 7.637v33.011h.295l-14.356 32.581a6 6 0 0 0 5.491 8.419zm22.028-12h-12.828l6.414-14.558zm183.892 30.523 2.792-.7a109.6 109.6 0 0 1 -2.142 13.742v-4.65a58.8 58.8 0 0 0 -.65-8.392zm3.65-13.375-27.18 6.865a204.954 204.954 0 0 1 -99.395 0l-27.425-6.865v-8.466l24.584 6.131a216.688 216.688 0 0 0 52.66 6.478 215.107 215.107 0 0 0 52.457-6.478l24.3-6.131zm-146 21.767v12.925l-1.048-2.037a80.622 80.622 0 0 1 -5.212-19.959l6.576 1.606a58.557 58.557 0 0 0 -.316 7.465zm140.242 41.085h-3.286a5.68 5.68 0 0 0 -5.956 5.657v7.472a59.5 59.5 0 1 1 -119 0v-7.472c0-3.313-3.164-5.657-6.478-5.657h-3.286a6.5 6.5 0 0 1 0-13h3.286c3.314 0 6.478-2.695 6.478-6.009v-22.076c0-1.513-.152-3.02-.006-4.517l4.874 1.253a215.6 215.6 0 0 0 52.518 6.477 215.83 215.83 0 0 0 52.547-6.477l8.737-2.191a46.778 46.778 0 0 1 .33 5.455v22.076a5.971 5.971 0 0 0 5.956 6.009h3.286a6.5 6.5 0 0 1 0 13zm5.758-83.69-27.18 6.864a204.918 204.918 0 0 1 -99.395 0l-27.425-6.864v-38.554l75.089 27.579a6.47 6.47 0 0 0 2.155.369 5.354 5.354 0 0 0 1.952-.369l74.804-27.579zm-76.674-94.961 100.819 34.851-100.819 37.111-100.818-37.111z" fill="#1ae5be"/></svg>