<svg id="Layer_1" height="512" viewBox="0 0 512 512" width="512" xmlns="http://www.w3.org/2000/svg" data-name="Layer 1"><path d="m266.99 17-183.3 63.22 2.31.85 53 19.465v94.825 32.11l4.99 1.25 25.01 6.268v-32.1-.016-91.32l97.99 35.988 25-9.182-155.99-57.288-2.31-.85 158.3-54.598z" fill="#d4e1f4"/><path d="m385.19 232.73a155.379 155.379 0 0 1 32.368 139.275l-.492.05c-.269.027-.539.046-.8.058l-3.918.178a33.121 33.121 0 0 0 -29 19.869l-1 2.452a15.6 15.6 0 0 1 -14.142 9.388h-16.671a1.869 1.869 0 0 1 -1.735-1.735l-.667-6.742a33.32 33.32 0 0 0 -15.271-24.6 3.8 3.8 0 0 1 -1.862-3.018v-6.667a7.3 7.3 0 0 1 2.625-5.284l28.6-25.121a34.05 34.05 0 0 0 10.093-35.308 34.564 34.564 0 0 0 -28.845-24.264l-2.859-.353a8.042 8.042 0 0 1 -5.077-2.69 1.922 1.922 0 0 1 -.3-2.117l5.967-10.184c2.484-4.243 5.168-8.452 7.975-12.512l-9.871-6.824c-2.976 4.306-5.822 8.771-8.457 13.271l-6 10.239a13.889 13.889 0 0 0 1.661 16.035 20.042 20.042 0 0 0 12.645 6.692l2.875.353a22.594 22.594 0 0 1 18.855 15.84 21.989 21.989 0 0 1 -6.488 22.822l-28.716 25.123a19.287 19.287 0 0 0 -6.683 14.282v6.667a15.706 15.706 0 0 0 7.364 13.063 21.169 21.169 0 0 1 9.71 15.664l.726 6.827a13.9 13.9 0 0 0 13.735 12.541h16.671a27.6 27.6 0 0 0 25.12-16.559l1-2.365a21.239 21.239 0 0 1 18.559-12.755l.993-.066a155.9 155.9 0 0 1 -147.159 104.756c-85.831 0-155.66-69.735-155.66-155.444 0-3.168.105-6.33.3-9.477a19.625 19.625 0 0 1 20.41 9.443 32.027 32.027 0 0 0 5.713 7.172l11.494 10.8a23.308 23.308 0 0 0 9.8 5.483l1.344.367a17.343 17.343 0 0 1 12.107 12.045l6.162 22.2a27.582 27.582 0 0 0 4.677 9.4l18.669 24.444a17.588 17.588 0 0 1 3.365 7.756l5.075 30.4a10.312 10.312 0 0 0 10.212 8.746 10.279 10.279 0 0 0 3.978-.8 14.549 14.549 0 0 0 8.892-12.125 24.742 24.742 0 0 1 5.778-13.571l5.409-6.5a17.229 17.229 0 0 0 3.239-5.973l5.557-18.006a20.734 20.734 0 0 1 7.235-10.392l16.534-12.678a11.821 11.821 0 0 0 4.561-7.5 11.641 11.641 0 0 0 -2.629-9.4l-11.008-12.933c-.549-.644-1.077-1.32-1.572-2.009l-8.414-11.551a30.174 30.174 0 0 0 -24.407-12.908h-.191l-16.764-10.206a22.792 22.792 0 0 0 -22.35-.622l-9.061 4.808a11.871 11.871 0 0 1 -15.555-4.1l-8.8-13.891a13.1 13.1 0 0 1 .223-14.369 15.591 15.591 0 0 1 14.939-6.744l13.2 1.673a17.811 17.811 0 0 0 17.734-8.577 14.857 14.857 0 0 1 14.737-7.264l5.773.737a17.794 17.794 0 0 0 16.258-6.744l5.087-6.592a23.222 23.222 0 0 0 4.824-15.294l-11.986.581a11.209 11.209 0 0 1 -2.338 7.381l-5.086 6.591a5.737 5.737 0 0 1 -5.243 2.173l-5.773-.737a26.841 26.841 0 0 0 -26.622 13.127 5.93 5.93 0 0 1 -5.856 2.713l-13.2-1.675a27.53 27.53 0 0 0 -26.382 11.91 25.083 25.083 0 0 0 -.426 27.527l8.8 13.88a23.916 23.916 0 0 0 31.35 8.238l9.061-4.849a10.734 10.734 0 0 1 10.522.255l17.2 10.307a10.182 10.182 0 0 0 5.52 1.449c5.694-.149 11.32 2.869 15.058 8.072l8.414 11.713c.686.954 1.42 1.891 2.18 2.785l10.766 12.644-16.384 12.56a32.668 32.668 0 0 0 -11.4 16.376l-5.558 18.006a5.29 5.29 0 0 1 -.994 1.834l-5.409 6.5a36.727 36.727 0 0 0 -8.448 19.581l-4.428-26.53a29.647 29.647 0 0 0 -5.661-13.065l-18.671-24.447a15.6 15.6 0 0 1 -2.651-5.33l-6.162-22.2a29.4 29.4 0 0 0 -20.515-20.406l-1.345-.367a11.255 11.255 0 0 1 -4.739-2.651l-11.488-10.801a19.979 19.979 0 0 1 -3.573-4.485 31.655 31.655 0 0 0 -29.534-15.606 155.3 155.3 0 0 1 35.749-79.245l-9.116-7.8a167.332 167.332 0 0 0 -40.167 108.738c0 92.325 75.212 167.438 167.66 167.438s167.661-75.113 167.661-167.438a167.34 167.34 0 0 0 -40.067-108.626z" fill="#1ae5be"/><path d="m396.551 233.292a5.917 5.917 0 0 0 4.449-5.82v-122.825l51.265-18.793a6.043 6.043 0 0 0 3.978-5.692 5.978 5.978 0 0 0 -4.02-5.612l-183.291-63.222a5.986 5.986 0 0 0 -3.907 0l-183.299 63.222a6 6 0 0 0 -1.726 10.406v48.909l-23.959 69.171a6 6 0 0 0 5.669 7.964h48.238a6 6 0 0 0 5.669-7.964l-23.617-68.183v-45.186l41 14.98v122.825a5.907 5.907 0 0 0 4.436 5.82l49.19 12.336a330.983 330.983 0 0 0 80.388 9.883 330.716 330.716 0 0 0 80.355-9.883zm-310.722-79.592 8.417 24.3h-16.834zm-15.691 45.3 3.118-9h25.144l3.118 9zm196.85-175.653 165.412 57.053-165.412 60.748-165.415-60.748zm-1.963 129.825a5.71 5.71 0 0 0 2.015.368 5.354 5.354 0 0 0 1.949-.368l120.011-44.118v81.621l-44.607 11.2a319.4 319.4 0 0 1 -154.845 0l-44.548-11.2v-81.621zm-75.431 80.815-44.594-11.197v-19.743l41.678 10.467a330.773 330.773 0 0 0 80.362 9.886 330.226 330.226 0 0 0 80.295-9.883l41.665-10.47v19.743l-44.554 11.2a319.425 319.425 0 0 1 -154.852-.003z" fill="#0635c9"/><g fill="#1ae5be"><path d="m162 186.516a6 6 0 0 0 6-6v-27.8a6 6 0 1 0 -12 0v27.8a6 6 0 0 0 6 6z"/><path d="m162 140.168a6 6 0 0 0 6-6v-3.339a6 6 0 1 0 -12 0v3.339a6 6 0 0 0 6 6z"/></g></svg>