<svg id="Layer_1" height="512" viewBox="0 0 512 512" width="512" xmlns="http://www.w3.org/2000/svg" data-name="Layer 1"><path d="m44 82h30v247h-30z" fill="#d4e1f4"/><path d="m479.574 49h-447.148a21.368 21.368 0 0 0 -21.426 21.349v270.051a21.581 21.581 0 0 0 21.426 21.6h100.982l-41 92.762a5.818 5.818 0 0 0 .462 5.606 5.913 5.913 0 0 0 5.023 2.632h39.567a5.876 5.876 0 0 0 5.489-3.437l16.651-37.563h192.8l16.654 37.563a5.876 5.876 0 0 0 5.486 3.437h39.567a5.941 5.941 0 0 0 5.027-2.663 5.818 5.818 0 0 0 .462-5.606l-41-92.731h100.978a21.581 21.581 0 0 0 21.426-21.6v-270.051a21.368 21.368 0 0 0 -21.426-21.349zm-346.023 402h-26.451l39.424-89h26.449zm192.355-89 11.485 26h-162.782l11.485-26zm-161 48 4.4-10h173.386l4.4 10zm239.994 41h-26.451l-39.425-89h26.449zm84.1-110.6a9.568 9.568 0 0 1 -9.426 9.6h-447.148a9.568 9.568 0 0 1 -9.426-9.6v-270.051a9.355 9.355 0 0 1 9.426-9.349h447.148a9.355 9.355 0 0 1 9.426 9.349z" fill="#0635c9"/><path d="m474 82a6 6 0 0 0 -6-6h-424a6 6 0 0 0 -6 6v247a6 6 0 0 0 6 6h424a6 6 0 0 0 6-6zm-12 241h-412v-235h412z" fill="#0635c9"/><path d="m66 117.586a6 6 0 0 0 6-6v-3.076a6 6 0 1 0 -12 0v3.076a6 6 0 0 0 6 6z" fill="#0635c9"/><path d="m66 269.708a6 6 0 0 0 6-6v-126.979a6 6 0 0 0 -12 0v126.979a6 6 0 0 0 6 6z" fill="#0635c9"/><g fill="#1ae5be"><path d="m292.4 126a6 6 0 0 0 -6-6h-190.469a6 6 0 1 0 0 12h190.469a6 6 0 0 0 6-6z"/><path d="m416.069 120h-97.215a6 6 0 0 0 0 12h97.215a6 6 0 0 0 0-12z"/><path d="m150.26 159h-54.329a6 6 0 1 0 0 12h54.329a6 6 0 0 0 0-12z"/><path d="m416.069 159h-233.353a6 6 0 0 0 0 12h233.353a6 6 0 0 0 0-12z"/><path d="m89.931 205a6 6 0 0 0 6 6h123.886a6 6 0 0 0 0-12h-123.886a6 6 0 0 0 -6 6z"/><path d="m416.069 199h-161.544a6 6 0 1 0 0 12h161.544a6 6 0 0 0 0-12z"/><path d="m316.4 240h-220.469a6 6 0 1 0 0 12h220.469a6 6 0 0 0 0-12z"/><path d="m416.069 240h-67.215a6 6 0 0 0 0 12h67.215a6 6 0 0 0 0-12z"/><path d="m200.26 279h-104.329a6 6 0 1 0 0 12h104.329a6 6 0 0 0 0-12z"/></g></svg>