<svg id="Layer_1" height="512" viewBox="0 0 512 512" width="512" xmlns="http://www.w3.org/2000/svg" data-name="Layer 1"><path d="m258.89 444.21c0-.48.01-.81.03-1.28a34.384 34.384 0 0 1 34.47-32.93h-34.39v-244.29a34.778 34.778 0 0 1 17-29.6v-5.11h-12.61a34.585 34.585 0 0 0 -34.39 34.71l-.09 278.526a34.7 34.7 0 0 0 34.48 34.764h30a34.741 34.741 0 0 1 -34.5-34.79z" fill="#d4e1f4"/><g fill="#0635c9"><path d="m476.568 259.729-5.568-14.175-.454-16.359a6.044 6.044 0 0 0 -3.93-5.608l-84.22-30.98a6 6 0 0 0 -4.14-.008l-84.219 30.96a6.094 6.094 0 0 0 -4.037 5.572 5.9 5.9 0 0 0 3.718 5.646l23.282 9.145v47.995a6.2 6.2 0 0 0 4.115 5.622 169.079 169.079 0 0 0 118.043 0 5.943 5.943 0 0 0 3.842-5.622v-47.995l16-5.962v7.633l-6.021 13.838a35.545 35.545 0 0 0 -2.979 14.027v19.642a5.706 5.706 0 0 0 5.754 5.9h17.211a5.942 5.942 0 0 0 6.035-5.9v-19.9a35.3 35.3 0 0 0 -2.432-13.471zm-45.568 27.962a157.524 157.524 0 0 1 -102 0v-4.265a171.669 171.669 0 0 0 51 7.859 166.849 166.849 0 0 0 51-7.859zm0-16.9a157.531 157.531 0 0 1 -102 0v-22.2l48.938 18.969a6.585 6.585 0 0 0 2.283.409 5.677 5.677 0 0 0 2.113-.409l48.666-18.967zm-50.674-15.263-67.267-26.186 67.267-24.731 67.274 24.735zm86.674 31.472h-5v-13.542a23.435 23.435 0 0 1 1.784-9.308l.71-1.8.768 1.913a23.555 23.555 0 0 1 1.738 8.937z"/><path d="m447.063 351h-19.726a6 6 0 0 0 0 12h19.726a6 6 0 0 0 0-12z"/><path d="m407.4 351h-85.39a6 6 0 0 0 0 12h85.39a6 6 0 0 0 0-12z"/><path d="m447.063 322h-82.453a6 6 0 0 0 0 12h82.453a6 6 0 0 0 0-12z"/><path d="m322.008 334h22.664a6 6 0 0 0 0-12h-22.664a6 6 0 0 0 0 12z"/><path d="m249 188.956a6 6 0 0 0 -6 6v66.616a6 6 0 0 0 12 0v-66.616a6 6 0 0 0 -6-6z"/><path d="m249 168a6 6 0 0 0 -6 6v3.2a6 6 0 0 0 12 0v-3.2a6 6 0 0 0 -6-6z"/></g><path d="m248.5 27.3a61.573 61.573 0 0 0 -61.5 61.58v150.754a20.378 20.378 0 0 1 -20.333 20.366 20.689 20.689 0 0 1 -20.667-20.37v-25.8a35 35 0 1 0 -70 0v62.17h-45.23a19.8 19.8 0 0 0 -19.77 19.773v99.206a71 71 0 1 0 142 0v-99.206a19.675 19.675 0 0 0 -19.626-19.773h-45.374v-62.173a23 23 0 1 1 46 0v25.8c0 17.813 14.845 32.37 32.665 32.37a32.379 32.379 0 0 0 32.335-32.363v-150.754a49.5 49.5 0 1 1 99 0v42.12h12v-42.12a61.573 61.573 0 0 0 -61.5-61.58zm-217.73 260.7h5.23v38.074a62.273 62.273 0 0 1 -13 37.347v-67.648a7.783 7.783 0 0 1 7.77-7.773zm51.23 166.021a59.062 59.062 0 0 1 -59-59.042v-12.779l7.5-8.675a74.076 74.076 0 0 0 17.5-47.451v-38.074h69v38.074a73.73 73.73 0 0 0 17.146 47.452l6.854 8.331v13.122a59.063 59.063 0 0 1 -59 59.042zm59-158.248v67.253a61.2 61.2 0 0 1 -12-36.952v-38.074h4.374a7.662 7.662 0 0 1 7.626 7.773z" fill="#1ae5be"/><path d="m97 304a6 6 0 0 0 -6-6h-17a6 6 0 0 0 -6 6v37a6 6 0 0 0 6 6h17a6 6 0 0 0 6-6zm-12 31h-5v-25h5z" fill="#1ae5be"/><path d="m495 125h-231.611a40.632 40.632 0 0 0 -40.389 40.708l-.084 278.5a40.529 40.529 0 0 0 40.484 40.492h231.6a6 6 0 0 0 5.993-6v-347.48a6.192 6.192 0 0 0 -5.993-6.22zm-260 40.708a28.619 28.619 0 0 1 28.389-28.708h6.611v267h-6.609c-11.106 0-21.391 4.215-28.391 11.476zm254 306.992h-225.609a28.351 28.351 0 1 1 0-56.7h225.609zm0-68.7h-207v-267h207z" fill="#0635c9"/></svg>